<svg width="253" height="253" viewBox="0 0 253 253" fill="none" xmlns="http://www.w3.org/2000/svg">
<g id="Rectangle 1" filter="url(#filter0_d_0_1)">
<rect x="11.5" y="7.5" width="230" height="165" rx="9.5" stroke="#ffffff" stroke-width="15" shape-rendering="crispEdges"/>
</g>
<g id="&#60;/&#62;">
<path d="M32.9091 100.273V93L91.4545 63.1818V74.8182L46.5455 96.4545L46.9091 95.7273V97.5455L46.5455 96.8182L91.4545 118.455V130.091L32.9091 100.273ZM147.102 35.5454L117.102 147H107.284L137.284 35.5454H147.102ZM221.455 100.273L162.909 130.091V118.455L207.818 96.8182L207.455 97.5455V95.7273L207.818 96.4545L162.909 74.8182V63.1818L221.455 93V100.273Z" fill="#ffffff"/>
<path d="M32.9091 100.273H28.9091V102.724L31.0937 103.837L32.9091 100.273ZM32.9091 93L31.0937 89.4357L28.9091 90.5483V93H32.9091ZM91.4545 63.1818H95.4545V56.6556L89.6392 59.6175L91.4545 63.1818ZM91.4545 74.8182L93.1907 78.4218L95.4545 77.3311V74.8182H91.4545ZM46.5455 96.4545L42.9677 94.6657L37.7297 105.142L48.2816 100.058L46.5455 96.4545ZM46.9091 95.7273H50.9091L43.3314 93.9384L46.9091 95.7273ZM46.9091 97.5455L43.3314 99.3343L50.9091 97.5455H46.9091ZM46.5455 96.8182L48.2816 93.2146L37.7297 88.1309L42.9677 98.607L46.5455 96.8182ZM91.4545 118.455H95.4545V115.942L93.1907 114.851L91.4545 118.455ZM91.4545 130.091L89.6392 133.655L95.4545 136.617V130.091H91.4545ZM36.9091 100.273V93H28.9091V100.273H36.9091ZM34.7245 96.5643L93.2699 66.7461L89.6392 59.6175L31.0937 89.4357L34.7245 96.5643ZM87.4545 63.1818V74.8182H95.4545V63.1818H87.4545ZM89.7184 71.2146L44.8093 92.851L48.2816 100.058L93.1907 78.4218L89.7184 71.2146ZM50.1232 98.2434L50.4868 97.5161L43.3314 93.9384L42.9677 94.6657L50.1232 98.2434ZM42.9091 95.7273V97.5455H50.9091V95.7273H42.9091ZM50.4868 95.7566L50.1232 95.0293L42.9677 98.607L43.3314 99.3343L50.4868 95.7566ZM44.8093 100.422L89.7184 122.058L93.1907 114.851L48.2816 93.2146L44.8093 100.422ZM87.4545 118.455V130.091H95.4545V118.455H87.4545ZM93.2699 126.527L34.7245 96.7084L31.0937 103.837L89.6392 133.655L93.2699 126.527ZM147.102 35.5454L150.965 36.5851L152.321 31.5454H147.102V35.5454ZM117.102 147V151H120.168L120.965 148.04L117.102 147ZM107.284 147L103.422 145.96L102.065 151H107.284V147ZM137.284 35.5454V31.5454H134.218L133.422 34.5058L137.284 35.5454ZM143.24 34.5058L113.24 145.96L120.965 148.04L150.965 36.5851L143.24 34.5058ZM117.102 143H107.284V151H117.102V143ZM111.147 148.04L141.147 36.5851L133.422 34.5058L103.422 145.96L111.147 148.04ZM137.284 39.5454H147.102V31.5454H137.284V39.5454ZM221.455 100.273L223.27 103.837L225.455 102.724V100.273H221.455ZM162.909 130.091H158.909V136.617L164.724 133.655L162.909 130.091ZM162.909 118.455L161.173 114.851L158.909 115.942V118.455H162.909ZM207.818 96.8182L211.396 98.607L216.634 88.1309L206.082 93.2146L207.818 96.8182ZM207.455 97.5455H203.455L211.032 99.3343L207.455 97.5455ZM207.455 95.7273L211.032 93.9384L203.455 95.7273H207.455ZM207.818 96.4545L206.082 100.058L216.634 105.142L211.396 94.6657L207.818 96.4545ZM162.909 74.8182H158.909V77.3311L161.173 78.4218L162.909 74.8182ZM162.909 63.1818L164.724 59.6175L158.909 56.6556V63.1818H162.909ZM221.455 93H225.455V90.5483L223.27 89.4357L221.455 93ZM219.639 96.7084L161.094 126.527L164.724 133.655L223.27 103.837L219.639 96.7084ZM166.909 130.091V118.455H158.909V130.091H166.909ZM164.645 122.058L209.554 100.422L206.082 93.2146L161.173 114.851L164.645 122.058ZM204.24 95.0293L203.877 95.7566L211.032 99.3343L211.396 98.607L204.24 95.0293ZM211.455 97.5455V95.7273H203.455V97.5455H211.455ZM203.877 97.5161L204.24 98.2434L211.396 94.6657L211.032 93.9384L203.877 97.5161ZM209.554 92.851L164.645 71.2146L161.173 78.4218L206.082 100.058L209.554 92.851ZM166.909 74.8182V63.1818H158.909V74.8182H166.909ZM161.094 66.7461L219.639 96.5643L223.27 89.4357L164.724 59.6175L161.094 66.7461ZM217.455 93V100.273H225.455V93H217.455Z" fill="#ffffff"/>
</g>
<line id="Line 2" x1="133" y1="165" x2="133" y2="213" stroke="#ffffff" stroke-width="30"/>
<rect id="Rectangle 2" x="66.5" y="220.5" width="135" height="25" rx="12.5" stroke="#ffffff" stroke-width="15"/>
<defs>
<filter id="filter0_d_0_1" x="0" y="0" width="253" height="188" filterUnits="userSpaceOnUse" color-interpolation-filters="sRGB">
<feFlood flood-opacity="0" result="BackgroundImageFix"/>
<feColorMatrix in="SourceAlpha" type="matrix" values="0 0 0 0 0 0 0 0 0 0 0 0 0 0 0 0 0 0 127 0" result="hardAlpha"/>
<feOffset dy="4"/>
<feGaussianBlur stdDeviation="2"/>
<feComposite in2="hardAlpha" operator="out"/>
<feColorMatrix type="matrix" values="0 0 0 0 0 0 0 0 0 0 0 0 0 0 0 0 0 0 0.25 0"/>
<feBlend mode="normal" in2="BackgroundImageFix" result="effect1_dropShadow_0_1"/>
<feBlend mode="normal" in="SourceGraphic" in2="effect1_dropShadow_0_1" result="shape"/>
</filter>
</defs>
</svg>
