<?xml version="1.0" encoding="UTF-8" standalone="no" ?>
<!DOCTYPE svg PUBLIC "-//W3C//DTD SVG 1.1//EN" "http://www.w3.org/Graphics/SVG/1.1/DTD/svg11.dtd">
<svg xmlns="http://www.w3.org/2000/svg" xmlns:xlink="http://www.w3.org/1999/xlink" version="1.1" width="1080" height="1080" viewBox="0 0 1080 1080" xml:space="preserve">
<desc>Created with Fabric.js 5.2.4</desc>
<defs>
</defs>
<rect x="0" y="0" width="100%" height="100%" fill="transparent"></rect>
<g transform="matrix(1 0 0 1 540 540)" id="f902b73e-60be-40dd-a1e4-6a98cd914b78"  >
<rect style="stroke: none; stroke-width: 1; stroke-dasharray: none; stroke-linecap: butt; stroke-dashoffset: 0; stroke-linejoin: miter; stroke-miterlimit: 4; fill: rgb(255,255,255); fill-rule: nonzero; opacity: 1; visibility: hidden;" vector-effect="non-scaling-stroke"  x="-540" y="-540" rx="0" ry="0" width="1080" height="1080" />
</g>
<g transform="matrix(Infinity NaN NaN Infinity 0 0)" id="bae94bcd-d797-43d8-a6ee-679f3fe0ef1b"  >
</g>
<g transform="matrix(1 0 0 1 540 540)"  >
<g style="" vector-effect="non-scaling-stroke"   >
		<g transform="matrix(1.59 0 0 1.59 -180.22 155.76)" id="XMLID_14_"  >
<path style="stroke: none; stroke-width: 1; stroke-dasharray: none; stroke-linecap: butt; stroke-dashoffset: 0; stroke-linejoin: miter; stroke-miterlimit: 4; fill: rgb(185,200,208); fill-rule: nonzero; opacity: 1;" vector-effect="non-scaling-stroke"  transform=" translate(-35.1, -265.1)" d="M 30.7 241.4 C 12.5 232.2 1.5 220.2 1.5 207 L 1.5 275.8 C 1.5 296.5 28.8 314.5 68.7 323.2 L 68.7 254.39999999999998 C 54.1 251.2 41.2 246.79999999999998 30.700000000000003 241.39999999999998 z" stroke-linecap="round" />
</g>
		<g transform="matrix(1.59 0 0 1.59 -180.14 32.98)" id="XMLID_10_"  >
<path style="stroke: none; stroke-width: 1; stroke-dasharray: none; stroke-linecap: butt; stroke-dashoffset: 0; stroke-linejoin: miter; stroke-miterlimit: 4; fill: rgb(185,200,208); fill-rule: nonzero; opacity: 1;" vector-effect="non-scaling-stroke"  transform=" translate(-35.15, -188.05)" d="M 39.1 168.8 C 35.800000000000004 167.4 32.6 166 29.700000000000003 164.4 C 12.200000000000003 155.20000000000002 1.6000000000000014 143.4 1.6000000000000014 130.5 L 1.6000000000000014 198.2 C 1.6000000000000014 199.7 1.8000000000000014 201.1 2.0000000000000013 202.6 C 4.600000000000001 216.2 18.8 228.29999999999998 40.4 237 C 48.8 240.4 58.3 243.3 68.7 245.6 L 68.7 177.8 C 57.800000000000004 175.5 47.800000000000004 172.4 39.1 168.8 z" stroke-linecap="round" />
</g>
		<g transform="matrix(1.59 0 0 1.59 -96.17 -186.67)" id="XMLID_3_"  >
<path style="stroke: none; stroke-width: 1; stroke-dasharray: none; stroke-linecap: butt; stroke-dashoffset: 0; stroke-linejoin: miter; stroke-miterlimit: 4; fill: rgb(142,165,175); fill-rule: nonzero; opacity: 1;" vector-effect="non-scaling-stroke"  transform=" translate(-87.85, -50.2)" d="M 123.3 0 C 56 0 1.5 23.7 1.5 53 C 1.5 66.1 12.5 78.1 30.6 87.4 C 33.6 88.9 36.800000000000004 90.4 40.2 91.80000000000001 C 48.6 95.20000000000002 58.2 98.10000000000001 68.6 100.4 L 92 79.3 L 102.8 69.5 L 121 53 L 174.2 4.799999999999997 C 158.7 1.7 141.5 0 123.3 0 z" stroke-linecap="round" />
</g>
		<g transform="matrix(1.59 0 0 1.59 -180.3 -89.71)" id="XMLID_4_"  >
<path style="stroke: none; stroke-width: 1; stroke-dasharray: none; stroke-linecap: butt; stroke-dashoffset: 0; stroke-linejoin: miter; stroke-miterlimit: 4; fill: rgb(185,200,208); fill-rule: nonzero; opacity: 1;" vector-effect="non-scaling-stroke"  transform=" translate(-35.05, -111.05)" d="M 40.3 91.8 C 36.9 90.39999999999999 33.699999999999996 89 30.699999999999996 87.39999999999999 C 12.5 78.1 1.5 66.1 1.5 53 L 1.5 121.7 C 1.5 123.2 1.7 124.60000000000001 1.9 126.10000000000001 C 4.4 139.4 18.1 151.3 39 160 C 42.8 161.6 46.7 163 50.9 164.4 C 56.5 166.20000000000002 62.4 167.8 68.6 169.1 L 68.6 100.3 C 58.3 98.1 48.699999999999996 95.2 40.3 91.8 z" stroke-linecap="round" />
</g>
		<g transform="matrix(1.59 0 0 1.59 -39.68 198.15)" id="XMLID_9_"  >
<path style="stroke: none; stroke-width: 1; stroke-dasharray: none; stroke-linecap: butt; stroke-dashoffset: 0; stroke-linejoin: miter; stroke-miterlimit: 4; fill: rgb(171,184,192); fill-rule: nonzero; opacity: 1;" vector-effect="non-scaling-stroke"  transform=" translate(-123.3, -291.7)" d="M 144.1 275.9 C 142.9 270.59999999999997 142.2 265.09999999999997 142.1 259.5 C 136 259.9 129.7 260.1 123.19999999999999 260.1 C 113.19999999999999 260.1 103.49999999999999 259.6 94.19999999999999 258.6 C 85.19999999999999 257.6 76.69999999999999 256.3 68.6 254.50000000000003 L 68.6 323.3 C 69.89999999999999 323.6 71.19999999999999 323.90000000000003 72.6 324.1 C 88 327.20000000000005 105.19999999999999 328.90000000000003 123.19999999999999 328.90000000000003 C 142.89999999999998 328.90000000000003 161.5 326.8 178 323.20000000000005 C 160.91737837378687 312.5071031232274 148.73730098064289 295.512481863767 144.1 275.90000000000003 z" stroke-linecap="round" />
</g>
		<g transform="matrix(1.59 0 0 1.59 13.78 -178.31)" id="XMLID_2_"  >
<path style="stroke: none; stroke-width: 1; stroke-dasharray: none; stroke-linecap: butt; stroke-dashoffset: 0; stroke-linejoin: miter; stroke-miterlimit: 4; fill: rgb(129,152,159); fill-rule: nonzero; opacity: 1;" vector-effect="non-scaling-stroke"  transform=" translate(-156.85, -55.45)" d="M 177.7 5.6 C 176.5 5.3 175.39999999999998 5.1 174.2 4.8999999999999995 L 121 53 L 102.8 69.5 L 92 79.3 L 68.7 100.4 C 85.1 104 103.7 106 123.30000000000001 106 C 130.70000000000002 106 137.9 105.7 144.9 105.2 C 168.4 103.4 189.60000000000002 98.60000000000001 206.4 91.8 C 209.8 90.39999999999999 213 89 216 87.39999999999999 C 234.1 78.1 245 66.1 245 52.99999999999999 C 245 32.19999999999999 217.6 14.29999999999999 177.7 5.599999999999994 z" stroke-linecap="round" />
</g>
		<g transform="matrix(1.59 0 0 1.59 13.62 -85.17)" id="XMLID_7_"  >
<path style="stroke: none; stroke-width: 1; stroke-dasharray: none; stroke-linecap: butt; stroke-dashoffset: 0; stroke-linejoin: miter; stroke-miterlimit: 4; fill: rgb(171,184,192); fill-rule: nonzero; opacity: 1;" vector-effect="non-scaling-stroke"  transform=" translate(-156.75, -113.9)" d="M 215.9 87.4 C 212.9 88.9 209.70000000000002 90.4 206.3 91.80000000000001 C 189.5 98.60000000000001 168.4 103.4 144.8 105.20000000000002 C 137.8 105.70000000000002 130.60000000000002 106.00000000000001 123.20000000000002 106.00000000000001 C 103.60000000000002 106.00000000000001 85.00000000000001 104.00000000000001 68.60000000000002 100.40000000000002 L 68.60000000000002 169.20000000000002 C 84.60000000000002 172.70000000000002 102.70000000000002 174.70000000000002 121.80000000000003 174.8 L 123.20000000000003 174.8 C 150.30000000000004 174.8 175.30000000000004 170.9 195.50000000000003 164.4 C 199.70000000000002 163 203.70000000000002 161.6 207.40000000000003 160 C 228.20000000000005 151.3 242.00000000000003 139.4 244.50000000000003 126.1 C 244.80000000000004 124.69999999999999 244.90000000000003 123.19999999999999 244.90000000000003 121.69999999999999 L 244.90000000000003 53 C 245.00000000000003 66.1 234.10000000000002 78.1 215.90000000000003 87.4 z" stroke-linecap="round" />
</g>
		<g transform="matrix(1.59 0 0 1.59 -39.68 -23.5)" id="XMLID_8_"  >
<path style="stroke: none; stroke-width: 1; stroke-dasharray: none; stroke-linecap: butt; stroke-dashoffset: 0; stroke-linejoin: miter; stroke-miterlimit: 4; fill: rgb(129,152,159); fill-rule: nonzero; opacity: 1;" vector-effect="non-scaling-stroke"  transform=" translate(-123.3, -152.6)" d="M 244.6 126.1 C 242.1 139.4 228.4 151.29999999999998 207.5 160 C 203.7 161.6 199.8 163 195.6 164.4 C 175.4 170.9 150.39999999999998 174.8 123.3 174.8 L 121.89999999999999 174.8 C 102.79999999999998 174.70000000000002 84.69999999999999 172.70000000000002 68.69999999999999 169.20000000000002 C 62.499999999999986 167.8 56.59999999999999 166.3 50.999999999999986 164.50000000000003 C 46.79999999999998 163.10000000000002 42.79999999999998 161.70000000000002 39.09999999999999 160.10000000000002 C 18.19999999999999 151.3 4.499999999999986 139.40000000000003 1.9999999999999858 126.10000000000002 C 1.6999999999999857 124.70000000000002 1.5999999999999859 123.20000000000002 1.5999999999999859 121.70000000000002 L 1.5999999999999859 130.50000000000003 C 1.5999999999999859 143.40000000000003 12.199999999999985 155.20000000000002 29.69999999999999 164.40000000000003 C 32.59999999999999 165.90000000000003 35.79999999999999 167.40000000000003 39.09999999999999 168.80000000000004 C 47.79999999999998 172.40000000000003 57.79999999999998 175.50000000000003 68.69999999999999 177.90000000000003 C 83.89999999999999 181.20000000000005 100.99999999999999 183.20000000000005 118.99999999999999 183.50000000000003 L 123.29999999999998 183.50000000000003 C 156 183.50000000000003 185.59999999999997 177.90000000000003 207.5 168.80000000000004 C 210.8 167.40000000000003 214 166.00000000000003 216.9 164.40000000000003 C 234.4 155.20000000000005 245 143.40000000000003 245 130.50000000000003 L 245 121.70000000000003 C 245 123.20000000000003 244.9 124.70000000000003 244.6 126.10000000000004 z" stroke-linecap="round" />
</g>
		<g transform="matrix(1.59 0 0 1.59 -39.6 98.4)" id="XMLID_19_"  >
<path style="stroke: none; stroke-width: 1; stroke-dasharray: none; stroke-linecap: butt; stroke-dashoffset: 0; stroke-linejoin: miter; stroke-miterlimit: 4; fill: rgb(129,152,159); fill-rule: nonzero; opacity: 1;" vector-effect="non-scaling-stroke"  transform=" translate(-123.35, -229.1)" d="M 244.6 202.6 C 242.2 215.29999999999998 229.6 226.7 210.3 235.3 C 209 235.9 207.60000000000002 236.5 206.20000000000002 237 C 203.20000000000002 238.2 200.20000000000002 239.3 196.9 240.4 C 184.5 244.5 170.20000000000002 247.6 154.7 249.4 C 150.7 249.9 146.6 250.20000000000002 142.39999999999998 250.5 C 136.09999999999997 250.9 129.7 251.2 123.19999999999997 251.2 C 114.19999999999997 251.2 105.39999999999998 250.79999999999998 96.99999999999997 250 C 86.99999999999997 249 77.49999999999997 247.6 68.59999999999997 245.6 C 58.19999999999997 243.29999999999998 48.69999999999997 240.4 40.29999999999997 237 C 18.79999999999997 228.3 4.499999999999972 216.2 1.9999999999999716 202.6 C 1.6999999999999715 201.2 1.5999999999999717 199.7 1.5999999999999717 198.2 L 1.5999999999999717 207 C 1.5999999999999717 220.1 12.599999999999971 232.1 30.799999999999972 241.4 C 41.29999999999997 246.70000000000002 54.199999999999974 251.20000000000002 68.79999999999997 254.4 C 76.89999999999996 256.2 85.39999999999998 257.5 94.39999999999998 258.5 C 103.69999999999997 259.5 113.39999999999998 260 123.39999999999998 260 C 129.79999999999998 260 136.09999999999997 259.8 142.29999999999998 259.4 C 146.39999999999998 259.09999999999997 150.39999999999998 258.79999999999995 154.29999999999998 258.29999999999995 C 169.99999999999997 256.49999999999994 184.49999999999997 253.39999999999995 197.09999999999997 249.19999999999996 C 203.99999999999997 246.89999999999995 210.39999999999998 244.29999999999995 215.99999999999997 241.39999999999995 C 216.89999999999998 240.89999999999995 217.79999999999998 240.39999999999995 218.69999999999996 239.99999999999994 C 235.19999999999996 230.99999999999994 245.09999999999997 219.49999999999994 245.09999999999997 206.99999999999994 L 245.09999999999997 198.29999999999995 C 245.09999999999997 198.79999999999995 244.99999999999997 199.19999999999996 244.99999999999997 199.69999999999996 C 244.89999999999998 200.69999999999996 244.79999999999998 201.69999999999996 244.59999999999997 202.59999999999997 z" stroke-linecap="round" />
</g>
		<g transform="matrix(1.59 0 0 1.59 13.94 37.53)" id="XMLID_16_"  >
<path style="stroke: none; stroke-width: 1; stroke-dasharray: none; stroke-linecap: butt; stroke-dashoffset: 0; stroke-linejoin: miter; stroke-miterlimit: 4; fill: rgb(171,184,192); fill-rule: nonzero; opacity: 1;" vector-effect="non-scaling-stroke"  transform=" translate(-156.95, -190.9)" d="M 216.9 164.4 C 213.8229478431943 165.9840167186425 210.68739752864556 167.4517211211972 207.5 168.8 C 185.6 177.9 156 183.5 123.3 183.5 L 119 183.5 C 100.9 183.2 83.9 181.2 68.7 177.9 L 68.7 245.7 C 77.60000000000001 247.6 87.1 249.1 97.1 250.1 C 105.5 250.9 114.3 251.29999999999998 123.3 251.29999999999998 C 129.8 251.29999999999998 136.3 251.1 142.5 250.6 C 146.7 250.29999999999998 150.8 249.9 154.8 249.5 C 170.3 247.7 184.60000000000002 244.6 197 240.5 C 200.2 239.4 203.3 238.3 206.3 237.1 C 207.70000000000002 236.5 209 236 210.4 235.4 C 229.70000000000002 226.8 242.3 215.4 244.7 202.7 C 244.89999999999998 201.7 245 200.7 245.1 199.7 C 245.1 199.2 245.2 198.79999999999998 245.2 198.29999999999998 L 245.2 130.5 C 245 143.4 234.5 155.2 216.89999999999998 164.4 z" stroke-linecap="round" />
</g>
		<g transform="matrix(1.59 0 0 1.59 112.02 144.93)" id="XMLID_85_"  >
<circle style="stroke: none; stroke-width: 1; stroke-dasharray: none; stroke-linecap: butt; stroke-dashoffset: 0; stroke-linejoin: miter; stroke-miterlimit: 4; fill: rgb(229,233,236); fill-rule: nonzero; opacity: 1;" vector-effect="non-scaling-stroke"  cx="0" cy="0" r="76.4" />
</g>
		<g transform="matrix(1.59 0 0 1.59 111.86 95.13)" id="XMLID_82_"  >
<path style="stroke: none; stroke-width: 1; stroke-dasharray: none; stroke-linecap: butt; stroke-dashoffset: 0; stroke-linejoin: miter; stroke-miterlimit: 4; fill: rgb(60,148,67); fill-rule: nonzero; opacity: 1;" vector-effect="non-scaling-stroke"  transform=" translate(-218.4, -227.05)" d="M 218.5 197.7 C 253.4 197.7 281.8 225.5 282.8 260.2 L 282.8 258.3 C 282.8 222.70000000000002 254 193.9 218.4 193.9 C 182.8 193.9 154 222.70000000000002 154 258.3 L 154 260.2 C 155.2 225.6 183.6 197.7 218.5 197.7 z" stroke-linecap="round" />
</g>
		<g transform="matrix(1.59 0 0 1.59 112.02 147.95)" id="XMLID_79_"  >
<path style="stroke: none; stroke-width: 1; stroke-dasharray: none; stroke-linecap: butt; stroke-dashoffset: 0; stroke-linejoin: miter; stroke-miterlimit: 4; fill: rgb(69,172,78); fill-rule: nonzero; opacity: 1;" vector-effect="non-scaling-stroke"  transform=" translate(-218.5, -260.2)" d="M 218.5 322.7 C 253.4 322.7 281.8 294.9 282.8 260.2 C 281.8 225.5 253.4 197.7 218.5 197.7 C 183.6 197.7 155.2 225.5 154.2 260.2 C 155.2 294.9 183.6 322.7 218.5 322.7 z" stroke-linecap="round" />
</g>
		<g transform="matrix(1.59 0 0 1.59 121.02 150.02)" id="XMLID_67_"  >
<path style="stroke: none; stroke-width: 1; stroke-dasharray: none; stroke-linecap: butt; stroke-dashoffset: 0; stroke-linejoin: miter; stroke-miterlimit: 4; fill: rgb(60,148,67); fill-rule: nonzero; opacity: 1;" vector-effect="non-scaling-stroke"  transform=" translate(-224.15, -261.5)" d="M 196.9 256 L 196.9 292 L 251.4 261.5 L 196.9 231 z" stroke-linecap="round" />
</g>
		<g transform="matrix(1.59 0 0 1.59 121.02 145.01)" id="XMLID_58_"  >
<path style="stroke: none; stroke-width: 1; stroke-dasharray: none; stroke-linecap: butt; stroke-dashoffset: 0; stroke-linejoin: miter; stroke-miterlimit: 4; fill: rgb(255,255,255); fill-rule: nonzero; opacity: 1;" vector-effect="non-scaling-stroke"  transform=" translate(-224.15, -258.35)" d="M 196.9 252.8 L 196.9 288.90000000000003 L 251.4 258.3 L 196.9 227.8 z" stroke-linecap="round" />
</g>
</g>
</g>
</svg>